sfk_cyclingleg_x_-0.09_y_-0.05_states
version=1
nRows=9
nColumns=53
inDegrees=yes

# SIMM Motion File Header:
name sfk_cyclingleg_x_-0.09_y_-0.05_states
datacolumns 53
datarows 9
otherdata 1
range 0.41808039 0.42015218
endheader
time	/jointset/bb/crank_angle/value	/jointset/bb/crank_angle/speed	/jointset/spindle/pedal_angle_r/value	/jointset/spindle/pedal_angle_r/speed	/jointset/ground_pelvis/pelvis_tilt/value	/jointset/ground_pelvis/pelvis_tilt/speed	/jointset/ground_pelvis/pelvis_list/value	/jointset/ground_pelvis/pelvis_list/speed	/jointset/ground_pelvis/pelvis_rotation/value	/jointset/ground_pelvis/pelvis_rotation/speed	/jointset/ground_pelvis/pelvis_tx/value	/jointset/ground_pelvis/pelvis_tx/speed	/jointset/ground_pelvis/pelvis_ty/value	/jointset/ground_pelvis/pelvis_ty/speed	/jointset/ground_pelvis/pelvis_tz/value	/jointset/ground_pelvis/pelvis_tz/speed	/jointset/hip_r/hip_angle_r/value	/jointset/hip_r/hip_angle_r/speed	/jointset/hip_r/hip_adduction_r/value	/jointset/hip_r/hip_adduction_r/speed	/jointset/hip_r/hip_rotation_r/value	/jointset/hip_r/hip_rotation_r/speed	/jointset/knee_r/knee_angle_r/value	/jointset/knee_r/knee_angle_r/speed	/jointset/knee_r/tib_tx_r/value	/jointset/knee_r/tib_tx_r/speed	/jointset/knee_r/tib_ty_r/value	/jointset/knee_r/tib_ty_r/speed	/jointset/tib_pat_r/pat_angle_r/value	/jointset/tib_pat_r/pat_angle_r/speed	/jointset/tib_pat_r/pat_tx_r/value	/jointset/tib_pat_r/pat_tx_r/speed	/jointset/tib_pat_r/pat_ty_r/value	/jointset/tib_pat_r/pat_ty_r/speed	/jointset/ankle_r/ankle_angle_r/value	/jointset/ankle_r/ankle_angle_r/speed	/jointset/subtalar_r/subtalar_angle_r/value	/jointset/subtalar_r/subtalar_angle_r/speed	/jointset/mtp_r/mtp_angle_r/value	/jointset/mtp_r/mtp_angle_r/speed	/forceset/bifemlh_r/activation	/forceset/bifemlh_r/fiber_length	/forceset/bifemsh_r/activation	/forceset/bifemsh_r/fiber_length	/forceset/glut_max2_r/activation	/forceset/glut_max2_r/fiber_length	/forceset/vas_int_r/activation	/forceset/vas_int_r/fiber_length	/forceset/med_gas_r/activation	/forceset/med_gas_r/fiber_length	/forceset/tib_ant_r/activation	/forceset/tib_ant_r/fiber_length
      0.41808039	   -210.87142299	   -480.13863232	    205.85647086	    275.14381645	      0.00000000	      0.00000000	     -0.00000000	     -0.00000000	     -0.00000000	     -0.00000000	     -0.09000000	      0.00000000	     -0.05000000	     -0.00000000	      0.00000000	      0.00000000	     40.56181612	     79.31410353	      4.38120807	     -0.35184331	      0.20519053	    -21.52791984	    -66.84532820	   -276.82563167	      0.00511585	      0.00595721	     -0.47811262	     -0.08904097	     17.49643215	      2.59338438	      0.04073549	     -0.08620060	     -0.02268573	      0.00869268	     21.70330795	     -6.79117653	     -0.00000000	     -0.00000000	     -0.00000000	     -0.00000000	     -0.02838573	      0.11392342	     -0.02838573	      0.16261985	     -0.02838573	      0.13061795	     -0.02838573	      0.13397372	     -0.02838573	      0.14346435	     -0.02838573	      0.11682598
      0.41836908	   -211.01003773	   -480.13863232	    205.93592699	    275.30226951	      0.00000000	      0.00000000	     -0.00000000	     -0.00000000	     -0.00000000	     -0.00000000	     -0.09000000	      0.00000000	     -0.05000000	     -0.00000000	      0.00000000	      0.00000000	     40.58473975	     79.49317492	      4.38110578	     -0.35678894	      0.19897508	    -21.53067618	    -66.92526793	   -276.97025307	      0.00511755	      0.00581299	     -0.47813834	     -0.08913249	     17.49717695	      2.56638837	      0.04071059	     -0.08629883	     -0.02268323	      0.00866480	     21.70136562	     -6.66464005	     -0.00000000	     -0.00000000	     -0.00000000	     -0.00000000	     -0.02842290	      0.11390532	     -0.02842290	      0.16257712	     -0.02842290	      0.13063491	     -0.02842290	      0.13402833	     -0.02842290	      0.14345356	     -0.02842290	      0.11682800
      0.41873086	   -211.18374084	   -480.13863232	    206.03556116	    275.50233685	      0.00000000	      0.00000000	     -0.00000000	     -0.00000000	     -0.00000000	     -0.00000000	     -0.09000000	      0.00000000	     -0.05000000	     -0.00000000	      0.00000000	      0.00000000	     40.61353905	     79.71697750	      4.38097558	     -0.36299419	      0.19118516	    -21.53406213	    -67.02550188	   -277.14948897	      0.00511962	      0.00563189	     -0.47817060	     -0.08924641	     17.49809932	      2.53272376	      0.04067935	     -0.08642157	     -0.02268010	      0.00862923	     21.69898320	     -6.50596618	     -0.00000000	     -0.00000000	     -0.00000000	     -0.00000000	     -0.02846948	      0.11388274	     -0.02846948	      0.16252358	     -0.02846948	      0.13065622	     -0.02846948	      0.13409677	     -0.02846948	      0.14342017	     -0.02846948	      0.11683049
      0.41909628	   -211.35919442	   -480.13863232	    206.13627316	    275.70611116	      0.00000000	      0.00000000	     -0.00000000	     -0.00000000	     -0.00000000	     -0.00000000	     -0.09000000	      0.00000000	     -0.05000000	     -0.00000000	      0.00000000	      0.00000000	     40.64271065	     79.94236695	      4.38084179	     -0.36927049	      0.18331551	    -21.53740653	    -67.12681135	   -277.32829079	      0.00512165	      0.00544857	     -0.47820324	     -0.08936064	     17.49901865	      2.49890843	      0.04064775	     -0.08654515	     -0.02267695	      0.00859258	     21.69663508	     -6.34557608	     -0.00000000	     -0.00000000	     -0.00000000	     -0.00000000	     -0.02851653	      0.11386006	     -0.02851653	      0.16246951	     -0.02851653	      0.13067780	     -0.02851653	      0.13416585	     -0.02851653	      0.14331657	     -0.02851653	      0.11683296
      0.41913282	   -211.37673978	   -480.13863232	    206.14634847	    275.72658174	      0.00000000	      0.00000000	     -0.00000000	     -0.00000000	     -0.00000000	     -0.00000000	     -0.09000000	      0.00000000	     -0.05000000	     -0.00000000	      0.00000000	      0.00000000	     40.64563234	     79.96486924	      4.38082828	     -0.36989859	      0.18252848	    -21.53773684	    -67.13694588	   -277.34604762	      0.00512185	      0.00543022	     -0.47820650	     -0.08937201	     17.49910990	      2.49553741	      0.04064458	     -0.08655749	     -0.02267664	      0.00858887	     21.69640349	     -6.32953071	     -0.00000000	     -0.00000000	     -0.00000000	     -0.00000000	     -0.02852123	      0.11385780	     -0.02852123	      0.16246410	     -0.02852123	      0.13067996	     -0.02852123	      0.13417276	     -0.02852123	      0.14335826	     -0.02852123	      0.11683320
      0.41917898	   -211.39890285	   -480.13863232	    206.15907652	    275.75246406	      0.00000000	      0.00000000	     -0.00000000	     -0.00000000	     -0.00000000	     -0.00000000	     -0.09000000	      0.00000000	     -0.05000000	     -0.00000000	      0.00000000	      0.00000000	     40.64932415	     79.99328435	      4.38081119	     -0.37069211	      0.18153429	    -21.53815301	    -67.14974861	   -277.36844583	      0.00512210	      0.00540703	     -0.47821063	     -0.08938637	     17.49922500	      2.49128192	      0.04064059	     -0.08657307	     -0.02267624	      0.00858418	     21.69611179	     -6.30926079	     -0.00000000	     -0.00000000	     -0.00000000	     -0.00000000	     -0.02852718	      0.11385494	     -0.02852718	      0.16245727	     -0.02852718	      0.13068270	     -0.02852718	      0.13418149	     -0.02852718	      0.14335832	     -0.02852718	      0.11683351
      0.41940978	   -211.50971816	   -480.13863232	    206.22273477	    275.88227965	      0.00000000	      0.00000000	     -0.00000000	     -0.00000000	     -0.00000000	     -0.00000000	     -0.09000000	      0.00000000	     -0.05000000	     -0.00000000	      0.00000000	      0.00000000	     40.66780287	     80.13520160	      4.38072517	     -0.37466170	      0.17656308	    -21.54021612	    -67.21377774	   -277.47990216	      0.00512333	      0.00529099	     -0.47823127	     -0.08945796	     17.49979753	      2.47005061	      0.04062060	     -0.08665086	     -0.02267426	      0.00856056	     21.69466732	     -6.20788402	     -0.00000000	     -0.00000000	     -0.00000000	     -0.00000000	     -0.02855689	      0.11384069	     -0.02855689	      0.16242313	     -0.02855689	      0.13069637	     -0.02855689	      0.13422511	     -0.02855689	      0.14334973	     -0.02855689	      0.11683504
      0.41963647	   -211.61855956	   -480.13863232	    206.28528833	    276.01043687	      0.00000000	      0.00000000	     -0.00000000	     -0.00000000	     -0.00000000	     -0.00000000	     -0.09000000	      0.00000000	     -0.05000000	     -0.00000000	      0.00000000	      0.00000000	     40.68598429	     80.27433548	      4.38063980	     -0.37856379	      0.17167996	    -21.54221390	    -67.27669127	   -277.58850786	      0.00512452	      0.00517686	     -0.47825155	     -0.08952794	     17.50035510	      2.44927271	      0.04060095	     -0.08672711	     -0.02267233	      0.00853708	     21.69327136	     -6.10826958	     -0.00000000	     -0.00000000	     -0.00000000	     -0.00000000	     -0.02858608	      0.11382675	     -0.02858608	      0.16238960	     -0.02858608	      0.13070982	     -0.02858608	      0.13426795	     -0.02858608	      0.14332949	     -0.02858608	      0.11683653
      0.42015218	   -211.86617357	   -480.13863232	    206.42770632	    276.30439861	      0.00000000	      0.00000000	     -0.00000000	     -0.00000000	     -0.00000000	     -0.00000000	     -0.09000000	      0.00000000	     -0.05000000	     -0.00000000	      0.00000000	      0.00000000	     40.72746428	     80.58993123	      4.38044228	     -0.38745260	      0.16056919	    -21.54665497	    -67.41991052	   -277.83240688	      0.00512712	      0.00491667	     -0.47829776	     -0.08968592	     17.50160609	      2.40228358	      0.04055618	     -0.08690003	     -0.02266794	      0.00848263	     21.69017971	     -5.88149040	     -0.00000000	     -0.00000000	     -0.00000000	     -0.00000000	     -0.02865248	      0.11379520	     -0.02865248	      0.16231334	     -0.02865248	      0.13074051	     -0.02865248	      0.13436550	     -0.02865248	      0.14320415	     -0.02865248	      0.11683983
